<?xml version="1.0" encoding="UTF-8" standalone="no"?>
<!-- Created with Inkscape (http://www.inkscape.org/) -->

<svg
   width="149.99998mm"
   height="150.00002mm"
   viewBox="0 0 149.99998 150.00002"
   version="1.1"
   id="svg5"
   sodipodi:docname="blas.svg"
   inkscape:version="1.1.2 (b8e25be833, 2022-02-05)"
   xmlns:inkscape="http://www.inkscape.org/namespaces/inkscape"
   xmlns:sodipodi="http://sodipodi.sourceforge.net/DTD/sodipodi-0.dtd"
   xmlns="http://www.w3.org/2000/svg"
   xmlns:svg="http://www.w3.org/2000/svg">
  <sodipodi:namedview
     id="namedview13"
     pagecolor="#ffffff"
     bordercolor="#666666"
     borderopacity="1.0"
     inkscape:pageshadow="2"
     inkscape:pageopacity="0.0"
     inkscape:pagecheckerboard="0"
     inkscape:document-units="mm"
     showgrid="false"
     inkscape:zoom="1.6969575"
     inkscape:cx="258.40364"
     inkscape:cy="293.4664"
     inkscape:window-width="1920"
     inkscape:window-height="1009"
     inkscape:window-x="-8"
     inkscape:window-y="-8"
     inkscape:window-maximized="1"
     inkscape:current-layer="svg5"
     inkscape:snap-page="false" />
  <defs
     id="defs2" />
  <rect
     style="fill:#d7dce3;fill-opacity:1;fill-rule:evenodd;stroke-width:0.264583"
     id="rect31"
     width="150"
     height="150"
     x="-4.722046e-06"
     y="8.2587894e-06" />
  <ellipse
     style="fill:none;fill-opacity:1;stroke:#4d4639;stroke-width:4.0118;stroke-dasharray:none;stroke-opacity:1"
     id="path13"
     cx="12.244528"
     cy="104.04015"
     rx="38.326309"
     ry="61.479263"
     transform="matrix(0.84621713,-0.53283822,0.62128388,0.78358557,0,0)" />
  <g
     id="g2567"
     transform="translate(-13.146486,-13.87181)">
    <path
       style="fill:#c3af9a;fill-opacity:1;stroke:#4d4639;stroke-width:1;stroke-miterlimit:4;stroke-dasharray:none;stroke-opacity:1"
       d="m 62.629011,82.228503 c -8.155766,24.988947 6.032289,3.07171 6.032289,3.07171 0,0 26.462221,0.14169 27.192971,-14.29965 0.55665,-11.00081 -9.88589,-15.70156 -18.49239,-16.56536 -11.220732,-1.12619 -25.930652,4.80003 -22.844034,17.49995 1.890232,7.77738 8.111164,10.29335 8.111164,10.29335 z"
       id="path21" />
    <g
       id="g22"
       transform="translate(-18.152357,-79.320843)"
       style="stroke:#4d4639;stroke-width:0.5;stroke-miterlimit:4;stroke-dasharray:none;stroke-opacity:1">
      <ellipse
         style="fill:#ece9e7;fill-opacity:1;stroke:#4d4639;stroke-width:0.5;stroke-miterlimit:4;stroke-dasharray:none;stroke-opacity:1"
         id="path22"
         cx="86.229836"
         cy="148.50002"
         rx="3.8791175"
         ry="3.5264704" />
      <ellipse
         style="fill:#ece9e7;fill-opacity:1;stroke:#4d4639;stroke-width:0.5;stroke-miterlimit:4;stroke-dasharray:none;stroke-opacity:1"
         id="path22-6"
         cx="100.07487"
         cy="148.50002"
         rx="3.8791175"
         ry="3.5264704" />
    </g>
  </g>
  <g
     id="g2567-3"
     transform="matrix(-1,0,0,1,168.10477,14.245752)">
    <path
       style="fill:#c3af9a;fill-opacity:1;stroke:#4d4639;stroke-width:1;stroke-miterlimit:4;stroke-dasharray:none;stroke-opacity:1"
       d="m 62.629011,82.228503 c -8.155766,24.988947 6.032289,3.07171 6.032289,3.07171 0,0 26.462221,0.14169 27.192971,-14.29965 0.55665,-11.00081 -9.88589,-15.70156 -18.49239,-16.56536 -11.220732,-1.12619 -25.930652,4.80003 -22.844034,17.49995 1.890232,7.77738 8.111164,10.29335 8.111164,10.29335 z"
       id="path21-3" />
    <g
       id="g22-1"
       transform="translate(-18.152357,-79.320843)"
       style="stroke:#4d4639;stroke-width:0.5;stroke-miterlimit:4;stroke-dasharray:none;stroke-opacity:1">
      <ellipse
         style="fill:#ece9e7;fill-opacity:1;stroke:#4d4639;stroke-width:0.5;stroke-miterlimit:4;stroke-dasharray:none;stroke-opacity:1"
         id="path22-7"
         cx="86.229836"
         cy="148.50002"
         rx="3.8791175"
         ry="3.5264704" />
      <ellipse
         style="fill:#ece9e7;fill-opacity:1;stroke:#4d4639;stroke-width:0.5;stroke-miterlimit:4;stroke-dasharray:none;stroke-opacity:1"
         id="path22-6-5"
         cx="100.07487"
         cy="148.50002"
         rx="3.8791175"
         ry="3.5264704" />
    </g>
  </g>
</svg>
