<?xml version="1.0" encoding="UTF-8" standalone="no"?>
<svg
   width="1024"
   height="1024"
   viewBox="0 0 1024 1024"
   version="1.1"
   id="svg32"
   sodipodi:docname="courses.svg"
   inkscape:version="1.1.2 (b8e25be833, 2022-02-05)"
   xmlns:inkscape="http://www.inkscape.org/namespaces/inkscape"
   xmlns:sodipodi="http://sodipodi.sourceforge.net/DTD/sodipodi-0.dtd"
   xmlns="http://www.w3.org/2000/svg"
   xmlns:svg="http://www.w3.org/2000/svg">
  <defs
     id="defs36" />
  <sodipodi:namedview
     id="namedview34"
     pagecolor="#ffffff"
     bordercolor="#666666"
     borderopacity="1.0"
     inkscape:pageshadow="2"
     inkscape:pageopacity="0.0"
     inkscape:pagecheckerboard="0"
     showgrid="false"
     inkscape:zoom="0.80371094"
     inkscape:cx="512"
     inkscape:cy="472.8068"
     inkscape:window-width="1920"
     inkscape:window-height="1009"
     inkscape:window-x="-8"
     inkscape:window-y="-8"
     inkscape:window-maximized="1"
     inkscape:current-layer="layer2" />
  <g
     inkscape:groupmode="layer"
     id="layer1"
     inkscape:label="Layer 1">
    <rect
       style="fill:#edece8;fill-opacity:1;stroke-width:3.77953;paint-order:markers fill stroke"
       id="rect1285"
       width="1024"
       height="1024"
       x="0"
       y="0" />
  </g>
  <g
     inkscape:groupmode="layer"
     id="layer2"
     inkscape:label="Layer 2">
    <path
       fill="#103863"
       d="m 500.87717,270.17463 c 4.479,-0.618 30.07,9.016 35.656,10.94 l 57.503,19.825 53.438,18.331 c 11.665,3.966 25.433,8.329 36.746,12.83 l -30.141,8.718 c 0.312,10.814 0.199,21.998 0.225,32.842 7.089,5.639 6.02,9.096 6.72,17.675 1.181,14.478 3.202,28.895 4.519,43.34 -10.096,-0.048 -20.191,-0.04 -30.287,0.024 2.929,-18.215 4.123,-37.791 6.98,-55.299 2.197,-2.85 2.658,-3.466 5.514,-5.642 -0.188,-10.361 0.178,-20.865 -0.027,-31.376 -8.459,2.433 -16.94,4.786 -25.443,7.058 -0.322,5.542 -0.526,30.718 0.155,35.477 -7.411,-5.182 -15.177,-9.836 -23.241,-13.929 -3.404,-1.873 -7.268,-3.52 -10.863,-5.044 -61.441,-26.043 -137.575,-23.216 -194.888,12.009 -3.575,2.197 -6.879,4.791 -10.592,6.985 0.058,-11.139 -0.103,-23.789 0.636,-34.789 -20.767,-5.836 -41.492,-11.822 -62.173,-17.958 15.665,-6.46 37.74,-13.322 54.22,-19.004 41.858,-14.112 83.64,-28.45 125.343,-43.013 z"
       id="path2"
       style="fill:#4d4639;fill-opacity:1" />
    <path
       fill="#103863"
       d="m 492.70624,532.89854 c 21.905,-3.305 42.33,11.807 45.575,33.721 3.246,21.914 -11.922,42.298 -33.844,45.484 -21.839,3.174 -42.128,-11.923 -45.362,-33.753 -3.233,-21.83 11.809,-42.16 33.631,-45.452 z"
       id="path6"
       style="fill:#4d4639;fill-opacity:1" />
    <path
       fill="#fb9919"
       d="m 406.28169,525.68356 c -11.12,6.082 -24.908,4.189 -33.977,-4.666 -9.069,-8.854 -11.292,-22.593 -5.479,-33.856 5.814,-11.263 18.301,-17.408 30.772,-15.143 12.471,2.264 22.001,12.407 23.484,24.995 0.414,3.511 0.178,7.069 -0.695,10.495 -1.112,4.362 -3.229,8.403 -6.183,11.799 -2.242,2.578 -4.924,4.737 -7.922,6.376 z"
       id="path10"
       style="fill:#a2b5cd;fill-opacity:1" />
    <path
       fill="#27a2ce"
       d="m 511.93346,451.73416 c 2.107,-12.423 12.356,-21.844 24.912,-22.9 12.556,-1.056 24.234,6.52 28.388,18.416 4.153,11.896 -0.273,25.095 -10.757,32.083 -2.91,1.94 -6.162,3.309 -9.583,4.035 -9.037,1.917 -18.433,-0.81 -25.038,-7.268 -2.719,-2.657 -4.86,-5.848 -6.288,-9.371 -0.595,-1.469 -1.063,-2.986 -1.398,-4.534 -0.745,-3.44 -0.825,-6.991 -0.236,-10.461 z"
       id="path16"
       style="fill:#c3af9a;fill-opacity:1" />
    <path
       fill="#ececec"
       d="m 640.27625,487.84905 c 12.185,-2.858 24.475,4.322 27.969,16.341 3.494,12.018 -3.031,24.669 -14.849,28.789 -11.819,4.12 -24.794,-1.732 -29.53,-13.317 -1.339,-3.277 -1.922,-6.815 -1.704,-10.348 0.403,-6.547 3.52,-12.63 8.601,-16.779 2.773,-2.266 6.026,-3.868 9.513,-4.686 z"
       id="path22"
       style="fill:#8ca4bb;fill-opacity:1" />
    <path
       fill="#103863"
       d="m 512.326,726.15182 c 74.185,-43.813 157.14,-64.239 242.947,-61.89499 17.615,0.481 33.569,0.691 51.156,3.07099 -4.531,6.87001 -11.677,15.173 -16.79,21.863 -3.892,5.091 -9.22,12.446 -13.323,16.885 -2.555,-0.291 -5.137,-0.535 -7.697,-0.794 -10.562,-0.995 -21.632,-1.108 -32.178,-1.435 -67.501,-2.08999 -135.358,8.425 -196.957,36.911 -9.014,4.169 -17.916,8.688 -26.866,13.096 -14.869,-6.889 -27.216,-13.317 -42.737,-19.46 -51.008,-20.188 -105.446,-30.035 -160.236,-30.593 -16.32,-0.166 -45.749,-0.014 -61.592,2.402 -9.179,-12.876 -20.558,-26.567 -30.482,-38.971 2.337,-0.116 4.831,-0.49499 7.179,-0.75399 13.124,-1.45001 26.283,-1.71401 39.477,-2.12401 86.841,-2.913 172.77,18.491 248.099,61.798 z"
       id="path4"
       style="fill:#4d4639;fill-opacity:1" />
    <path
       fill="#103863"
       d="m 534.27,694.06982 c 11.649,-10.539 25.643,-20.626 38.814,-29.167 58.68,-38.055 122.081,-56.023 191.244,-61.554 -0.954,3.621 -2.812,12.502 -5.156,14.9 -4.118,1.127 -10.584,0.962 -15.074,1.3 -58.333,4.38 -115.48,21.637 -166.367,50.526 -14.693,8.342 -28.999,17.437 -42.991,26.812 0.101,-1.483 0.052,-1.402 -0.47,-2.817 z"
       id="path12"
       style="fill:#4d4639;fill-opacity:1" />
    <path
       fill="#103863"
       d="m 261.054,603.46282 c 81.792,6.343 170.103,38.22701 231.978,93.11001 l -2.058,1.223 c -22.592,-14.798 -44.397,-28.00601 -68.844,-39.68001 -49.397,-23.30099 -102.848,-36.79199 -157.386,-39.72499 -1.228,-5.24 -2.682,-9.347 -3.69,-14.92801 z"
       id="path14"
       style="fill:#4d4639;fill-opacity:1" />
    <path
       fill="#0675cd"
       d="m 749.253,636.30183 c 7.041,-0.751 24.773,-0.296 32.465,-0.30301 -1.312,5.26801 -3.051,10.52301 -4.682,15.71001 -8.868,-1.252 -25.397,-0.516 -34.654,-0.274 -47.501,1.241 -89.651,9.07 -134.979,22.81 -8.89,2.941 -18.467,6.46 -27.433,8.769 56.931,-31.07201 104.671,-42.854 169.283,-46.712 z"
       id="path18"
       style="fill:#c3af9a;fill-opacity:1" />
    <path
       fill="#0675cd"
       d="m 242.449,636.16282 c 6.134,-0.143 12.27,-0.173 18.406,-0.091 52.768,0.67899 111.043,12.114 158.404,35.584 4.122,2.042 16.785,8.05499 19.381,10.723 -10.137,-3.461 -18.703,-6.941 -29.338,-10.183 -39.527,-11.92701 -80.397,-18.834 -121.648,-20.558 -10.801,-0.5 -29.354,-1.221 -39.95,-0.11901 -1.615,-5.165 -3.367,-10.28499 -5.255,-15.356 z"
       id="path20"
       style="fill:#c3af9a;fill-opacity:1" />
    <path
       fill="#040b11"
       fill-opacity="0.976471"
       d="m 534.27,694.06982 c 0.522,1.415 0.571,1.334 0.47,2.817 -3.544,2.52401 -7.103,5.027 -10.677,7.508 l -0.208,-0.2 c 2.989,-3.481 7.002,-6.97699 10.415,-10.125 z"
       id="path28" />
    <path
       fill="#040b11"
       fill-opacity="0.984314"
       d="m 490.974,697.79583 2.058,-1.223 c 1.354,1.25499 7.541,6.75399 8.114,7.87799 -3.289,-1.693 -7.064,-4.49 -10.172,-6.65499 z"
       id="path30" />
  </g>
</svg>
