<?xml version="1.0" encoding="UTF-8" standalone="no"?>
<!-- Created with Inkscape (http://www.inkscape.org/) -->

<svg
   width="150"
   height="150"
   viewBox="0 0 39.6875 39.6875"
   version="1.1"
   id="svg1106"
   inkscape:version="1.1.2 (b8e25be833, 2022-02-05)"
   sodipodi:docname="logo.svg"
   xmlns:inkscape="http://www.inkscape.org/namespaces/inkscape"
   xmlns:sodipodi="http://sodipodi.sourceforge.net/DTD/sodipodi-0.dtd"
   xmlns="http://www.w3.org/2000/svg"
   xmlns:svg="http://www.w3.org/2000/svg">
  <sodipodi:namedview
     id="namedview1108"
     pagecolor="#ffffff"
     bordercolor="#666666"
     borderopacity="1.0"
     inkscape:pageshadow="2"
     inkscape:pageopacity="0.0"
     inkscape:pagecheckerboard="0"
     inkscape:document-units="mm"
     showgrid="false"
     width="150px"
     units="px"
     inkscape:zoom="5.865376"
     inkscape:cx="17.304943"
     inkscape:cy="42.452521"
     inkscape:window-width="1920"
     inkscape:window-height="1009"
     inkscape:window-x="-8"
     inkscape:window-y="-8"
     inkscape:window-maximized="1"
     inkscape:current-layer="layer1" />
  <defs
     id="defs1103" />
  <g
     inkscape:label="Layer 1"
     inkscape:groupmode="layer"
     id="layer1">
    <g
       id="g1220"
       transform="matrix(1.3173047,0,0,1.2510512,6.1170905,10.588555)">
      <path
         fill="#010103"
         d="m 24.587462,2.34857 c 0.3099,-0.05171 0.33417,-0.08495 0.61977,0.05423 0.26999,1.084592 0.21021,7.617484 0.21601,9.134709 -0.74646,-0.667955 -2.75198,-2.366912 -3.72919,-2.164617 -0.79382,1.430616 1.60092,2.031684 2.33824,2.814083 2.16856,2.301073 0.5585,6.657301 -1.38429,8.602377 -1.09955,1.087704 -2.48281,1.844557 -3.99172,2.18414 -1.69481,0.398339 -4.48522,0.265857 -6.31897,0.261676 l -8.213154,-0.01826 -7.184438,0.0077 c 7.897251,-9.858675 19.101662,-1.9363 19.159192,-18.205797 2.81345,-0.940245 5.64352,-1.830433 8.48856,-2.670358 z"
         id="path898"
         style="fill:#4d4639;fill-opacity:1;stroke-width:0.207697" />
      <path
         fill="#2e3339"
         d="m 3.327629,-8.3573622 c 6.567583,-0.2251465 14.238853,-0.021106 20.893873,-0.032471 -1.03703,1.123638 -2.16794,2.3816577 -3.44486,3.2236577 C 14.707332,-1.164068 6.157705,-3.315392 4.661668,5.836555 l -0.07063,3.704684 c -2.945554,1.175775 -6.027772,1.769789 -9.014448,2.862478 L -4.42951,2.402915 c 0.946683,0.613119 2.676382,1.911017 3.724833,1.708304 l 0.0731,-0.240935 C -1.149762,2.591702 -2.981647,2.23592 -4.144543,0.332172 -4.344362,-4.3640583 -1.260257,-7.7227227 3.327552,-8.3574434 Z"
         id="path900"
         style="fill:#c3af9a;fill-opacity:1;stroke-width:0.207697" />
      <path
         fill="#d47837"
         d="m 14.423202,6.21339 0.21869,0.06044 c 0.21849,0.389856 0.10509,0.930066 0.102,1.40403 -0.0559,8.216483 -7.274363,7.560368 -12.893596,10.072664 -2.695901,1.205266 -3.903034,2.21405 -6.049581,4.207519 -0.590272,-0.537932 -0.507402,-5.001335 -0.23988,-5.736996 C -3.065873,12.442633 3.654151,12.03098 6.845824,10.37314 9.554812,8.965993 11.881642,7.663528 14.423222,6.213389 Z"
         id="path902"
         style="fill:#d7dce3;fill-opacity:1;stroke-width:0.207697" />
      <path
         fill="#d47837"
         d="m 24.854562,-6.951254 c 0.29845,0.074359 0.1589,0.00649 0.39939,0.2629347 0.22121,0.6949546 0.15225,0.9996431 0.17656,1.6871212 0.11008,3.1102561 0.35723,4.8335141 -2.91689,6.2491771 -3.66522,1.58493 -7.51446,2.113312 -11.14999,3.778832 C 9.101819,6.063008 7.988149,7.019039 6.129264,8.656934 L 6.018132,8.678444 5.847415,8.554445 C 5.826305,7.924083 5.825905,7.293312 5.846794,6.66295 c 0.319638,-7.838263 8.636438,-7.358068 14.062928,-10.0415084 2.40015,-1.1869891 2.98066,-1.7695775 4.94485,-3.5725921 z"
         id="path904"
         style="fill:#d7dce3;fill-opacity:1;stroke-width:0.207697" />
    </g>
  </g>
</svg>
