<?xml version="1.0" encoding="UTF-8" standalone="no"?>
<svg
   width="150mm"
   height="150mm"
   viewBox="0 0 566.92913 566.92913"
   version="1.1"
   id="svg16"
   sodipodi:docname="one.svg"
   inkscape:version="1.1.2 (b8e25be833, 2022-02-05)"
   xmlns:inkscape="http://www.inkscape.org/namespaces/inkscape"
   xmlns:sodipodi="http://sodipodi.sourceforge.net/DTD/sodipodi-0.dtd"
   xmlns="http://www.w3.org/2000/svg"
   xmlns:svg="http://www.w3.org/2000/svg">
  <defs
     id="defs20" />
  <sodipodi:namedview
     id="namedview18"
     pagecolor="#ffffff"
     bordercolor="#666666"
     borderopacity="1.0"
     inkscape:pageshadow="2"
     inkscape:pageopacity="0.0"
     inkscape:pagecheckerboard="0"
     showgrid="false"
     units="mm"
     inkscape:zoom="0.80371094"
     inkscape:cx="512"
     inkscape:cy="171.70352"
     inkscape:window-width="1920"
     inkscape:window-height="1009"
     inkscape:window-x="-8"
     inkscape:window-y="-8"
     inkscape:window-maximized="1"
     inkscape:current-layer="layer2"
     inkscape:document-units="mm" />
  <g
     inkscape:groupmode="layer"
     id="layer1"
     inkscape:label="Layer 1">
    <rect
       style="fill:#ece9e7;fill-opacity:1;stroke:none;stroke-width:0;stroke-miterlimit:4;stroke-dasharray:none;paint-order:markers fill stroke"
       id="rect940"
       width="566.92914"
       height="566.92914"
       x="-2.1626629e-06"
       y="-2.1626629e-06" />
  </g>
  <g
     inkscape:groupmode="layer"
     id="layer2"
     inkscape:label="Layer 2">
    <g
       id="g1174"
       transform="matrix(1.0676866,0,0,1.0676866,-10.335948,-21.729713)">
      <path
         fill="#010101"
         d="m 258.34514,302.68486 c 1.43935,-0.13331 3.53296,-0.14807 4.99592,-0.0915 19.28907,0.74526 37.58003,-3.60821 53.53882,10.0848 17.79807,15.27207 14.94396,32.43065 14.95479,53.11774 l 0.0128,13.81157 c 0.002,4.00716 0.23316,8.1496 -0.59818,12.07854 -2.21117,10.45423 -8.91748,16.33511 -19.44845,17.22941 0.22825,10.72774 0.0851,21.88492 0.0836,32.64463 l 0.0157,36.68524 c -0.1397,16.17425 -8.9647,25.83157 -25.41049,25.51035 -4.90737,-0.95038 -7.79886,-1.97652 -11.77995,-4.99198 -3.96338,3.33225 -9.51958,5.04806 -14.65717,5.07659 -5.97582,0.0644 -11.73027,-2.26085 -15.98388,-6.45839 -6.98523,-6.96161 -6.66351,-14.7103 -6.66696,-23.81126 l 0.003,-14.03883 0.006,-50.56961 c -22.54358,-2.84575 -19.66636,-23.10881 -19.6762,-40.18917 l -0.0157,-16.14522 c -0.005,-6.14553 -0.32269,-11.62697 1.09206,-17.66771 1.4669,-6.37575 4.4553,-12.30138 8.70891,-17.27221 8.37883,-9.80933 18.21767,-14.02949 30.82502,-15.00299 z m 24.45224,120.32203 c 0.16971,13.83617 -0.0467,27.69988 0.0295,41.5385 0.0256,4.61615 -0.0507,9.24706 -0.0108,13.85535 0.10872,2.61257 -0.35516,5.82971 1.70646,7.83132 1.35573,1.31637 3.21665,1.92438 5.07954,1.81026 7.28481,-0.44666 6.07518,-8.66414 6.07469,-13.3959 l -0.006,-14.08999 -0.0138,-46.9004 c 9.8e-4,-3.86794 -0.47077,-13.57938 0.4683,-16.92688 1.8929,-6.74517 14.62815,-0.82593 17.95056,-6.33835 2.1,-2.9402 1.56922,-9.10884 1.57119,-12.69935 v -13.75007 l -0.0148,-13.66892 c -0.004,-2.8423 0.10822,-6.55234 -0.28285,-9.28641 -0.97252,-6.77223 -4.64764,-12.86217 -10.18663,-16.87868 -10.53441,-7.76196 -25.35343,-4.64321 -37.71531,-5.29106 -2.1551,-0.11314 -5.96156,-0.15397 -8.01039,0.0959 -7.80723,0.85348 -14.67439,3.09121 -19.75295,9.46745 -2.52452,3.14679 -4.24967,6.85831 -5.0274,10.81726 -0.93661,4.67666 -0.74525,9.59879 -0.73197,14.36301 l 0.033,15.36947 c -0.0167,5.64475 -0.19283,11.46955 0.0876,17.09708 0.0974,1.94504 0.94005,4.16654 2.48714,5.37715 4.86211,4.12621 15.51114,-1.83485 16.92589,7.04475 0.27302,1.71286 0.16725,5.60196 0.16725,7.45206 l 5e-4,13.36294 -0.007,45.42317 c -0.0118,5.81692 -0.24842,12.38451 0.21054,18.14782 0.57111,7.17806 12.90939,6.79584 12.91431,-0.79051 0.23662,-5.63738 0.12889,-11.2777 0.11708,-16.93229 l -0.0438,-32.18026 c -4.9e-4,-2.52501 -0.28433,-10.13104 0.2553,-12.09921 2.29578,-8.37637 15.04087,-8.16287 15.72464,2.17477 z"
         id="path2"
         style="fill:#c3af9a;fill-opacity:1;stroke-width:0.491917" />
      <path
         fill="#010101"
         d="m 274.12487,65.289221 c 3.8468,-0.34331 8.10828,2.3671 8.51903,6.14724 0.6208,5.71274 0.24448,12.3888 0.29072,18.15481 22.78907,-0.26578 45.69569,0.082 68.49459,0.0282 3.22698,-0.008 4.89508,1.63385 7.21447,3.6394 8.72956,7.548959 17.48816,15.077759 26.29938,22.530799 3.45917,2.92986 4.08488,7.31482 0.54898,10.63673 -10.21467,8.56626 -20.57494,18.58219 -31.13346,26.49271 -1.52592,1.14322 -24.87676,0.69705 -28.15293,0.69262 l -43.33399,-0.0256 c 0.20955,17.80053 0.0964,36.14758 0,53.96237 -1.79599,0.13036 -4.22902,0.0733 -6.07223,0.0836 l -10.17581,-0.009 0.0123,-37.81813 c -7.85396,-0.16922 -67.25053,0.64737 -70.27927,-0.50126 -1.24553,-0.47224 -2.44631,-1.35622 -3.49212,-2.17428 -6.11798,-4.78537 -11.92556,-10.19892 -17.79118,-15.30158 -2.51468,-2.18756 -5.00822,-4.40463 -7.54946,-6.5607 -1.12699,-0.95629 -2.36071,-1.80829 -3.42818,-2.83148 -1.36064,-1.30358 -2.27413,-2.98742 -2.2333,-4.9054 0.0438,-2.06556 1.13436,-3.87139 2.57519,-5.28615 3.76563,-3.69725 8.06253,-7.05213 12.03771,-10.5354 3.50295,-3.06956 15.36947,-14.18591 18.70025,-15.76939 0.94448,-0.44913 2.15607,-0.52636 3.19352,-0.58588 7.67244,-0.4383 15.58297,-0.0585 23.27606,-0.0585 l 45.00898,0.029 c 0.16283,-10.930899 -0.34385,-22.410439 0.26662,-33.348569 0.21054,-3.77325 3.56837,-6.15285 7.20413,-6.68584 z m 73.42459,72.030689 c 3.42375,-2.5747 6.48839,-5.50603 9.76358,-8.22585 l 8.5938,-7.31825 c -5.34714,-4.66092 -12.9881,-10.82957 -17.80545,-15.71873 -14.91198,-0.19087 -30.05714,-0.0654 -44.98536,-0.059 l -13.28522,0.0162 c -1.89339,0.003 -5.13119,0.0969 -6.93603,-0.0585 0.0276,9.72914 -0.30794,21.81162 0.0979,31.3622 z m -163.61127,-0.24399 c 6.20997,4.68551 12.84053,11.259 19.00376,16.25 l 46.37159,-0.0177 17.3032,0.0202 0.0236,-31.25349 -42.71025,-0.0359 c -6.14651,-9.8e-4 -16.54368,-0.32319 -22.45111,0.063 -5.75593,4.59844 -11.88227,10.13301 -17.5408,14.97397 z"
         id="path4"
         style="fill:#ddbea9;fill-opacity:1;stroke-width:0.491917" />
      <path
         fill="#010101"
         d="m 91.261919,271.62568 c 3.480808,-0.16233 7.307435,0.79346 10.732661,1.45214 13.00482,2.50189 26.12278,6.5002 38.04342,12.28712 23.6022,11.45725 45.6952,30.80338 54.12667,56.35751 10.76561,32.75531 -0.82347,67.45664 -15.46146,97.01596 -9.64995,19.48633 -21.38661,37.5884 -33.59354,55.54536 -2.25544,3.31749 -4.41693,6.83126 -7.07378,9.79211 -1.05811,1.17912 -2.1054,1.61742 -3.52557,2.09852 -7.33055,1.62972 -12.49175,-4.72635 -9.1049,-11.34805 1.05172,-2.0567 3.02037,-4.44545 4.37856,-6.4205 2.921,-4.25657 5.80659,-8.53772 8.65529,-12.84348 22.36699,-33.6993 53.70066,-86.05112 40.3515,-128.16221 -11.41298,-32.55067 -46.03758,-52.02766 -78.22325,-58.51555 -2.897392,-0.58391 -9.414314,-1.42509 -11.871442,-2.77885 -6.137655,-3.38144 -4.667313,-12.69442 2.565841,-14.48008 z"
         id="path6"
         style="fill:#4d4639;fill-opacity:1;stroke-width:0.491917" />
      <path
         fill="#010101"
         d="m 455.6621,271.66208 c 2.01391,-0.17069 3.48622,-0.27941 5.40224,0.58538 5.6969,2.33858 6.08699,11.85817 0.17955,14.06688 -3.51623,1.3144 -8.35768,1.78418 -12.1538,2.61109 -6.99064,1.45067 -13.87552,3.37013 -20.6084,5.74511 -21.9041,7.77623 -44.72612,23.64106 -54.79321,45.10637 -18.85175,40.19753 11.09225,94.98681 32.69235,128.51099 3.5477,5.55227 7.18642,11.046 10.91466,16.47874 1.45903,2.16247 2.9338,4.32051 4.39036,6.48101 2.17871,3.23043 5.08348,6.99704 2.84181,11.00567 -1.33113,2.38138 -2.91313,3.25502 -5.4288,3.95994 -1.98587,0.2558 -5.03969,0.18594 -6.44904,-1.19536 -4.44841,-4.60484 -8.16976,-10.69133 -11.77208,-16.07881 -30.78911,-46.04447 -72.09788,-115.09935 -34.39044,-168.37156 20.43327,-28.86817 55.2507,-43.28185 89.1748,-48.90545 z"
         id="path8"
         style="fill:#4d4639;fill-opacity:1;stroke-width:0.491917" />
      <path
         fill="#010101"
         d="m 271.07843,232.01009 c 18.82814,-2.1 35.78798,11.47594 37.8619,30.30704 2.07393,18.83109 -11.52513,35.77224 -30.35918,37.82009 -18.79715,2.04441 -35.69845,-11.52268 -37.76844,-30.31737 -2.06999,-18.79469 11.47397,-35.71419 30.26572,-37.80976 z m 6.97834,52.08521 c 9.91804,-1.66662 16.64698,-11.00567 15.08858,-20.94142 -1.5579,-9.93575 -10.82218,-16.76652 -20.77465,-15.31733 -6.53562,0.95137 -12.05543,5.34124 -14.45451,11.49513 -2.39859,6.15339 -1.30604,13.12091 2.86099,18.24473 4.16753,5.12381 10.76611,7.6134 17.27959,6.51889 z"
         id="path10"
         style="fill:#c3af9a;fill-opacity:1;stroke-width:0.491917" />
      <path
         fill="#010101"
         d="m 452.73962,231.85218 c 3.95354,-0.62326 9.16492,-0.48503 11.50595,3.27175 1.21012,1.94504 1.55741,4.30575 0.95826,6.51643 -1.59726,6.07961 -7.73147,5.79429 -12.77658,6.21095 -3.22107,0.26563 -6.451,0.48995 -9.67109,0.76345 -8.42065,0.73099 -16.80341,1.8442 -25.12321,3.3352 -27.51541,5.10562 -49.67383,12.41305 -73.9839,26.01014 -5.42979,2.96233 -11.00174,0.71279 -12.19759,-5.76183 -0.6695,-3.62789 2.21265,-6.84208 5.2463,-8.63217 35.24933,-20.80269 75.55754,-29.45306 116.04186,-31.71392 z"
         id="path12"
         style="fill:#4d4639;fill-opacity:1;stroke-width:0.491917" />
      <path
         fill="#010101"
         d="m 90.909214,231.79217 c 5.515379,-0.1766 14.525836,0.52438 20.203056,1.1196 28.10964,2.94757 56.38063,9.13048 82.25942,20.71367 6.73878,3.01643 14.96758,7.08213 21.25478,11.12668 1.17912,0.9371 2.51468,2.42712 2.92838,3.89156 1.49789,5.3009 -1.12206,8.91846 -5.843,10.62541 -3.60034,0.84856 -11.01698,-3.98797 -14.55928,-5.84594 -4.54679,-2.33612 -9.20279,-4.45235 -13.95225,-6.3423 -24.55407,-9.77046 -50.37875,-15.98043 -76.68994,-18.441 -2.87919,-0.26268 -15.555909,-0.95924 -17.560473,-2.07441 -5.613762,-3.1227 -5.946299,-12.40469 1.959307,-14.77327 z"
         id="path14"
         style="fill:#4d4639;fill-opacity:1;stroke-width:0.491917" />
    </g>
  </g>
</svg>
