<?xml version="1.0" encoding="UTF-8" standalone="no"?>
<svg
   width="1024"
   height="1024"
   viewBox="0 0 1024 1024"
   version="1.1"
   id="svg10"
   sodipodi:docname="three.svg"
   inkscape:version="1.1.2 (b8e25be833, 2022-02-05)"
   xmlns:inkscape="http://www.inkscape.org/namespaces/inkscape"
   xmlns:sodipodi="http://sodipodi.sourceforge.net/DTD/sodipodi-0.dtd"
   xmlns="http://www.w3.org/2000/svg"
   xmlns:svg="http://www.w3.org/2000/svg">
  <defs
     id="defs14" />
  <sodipodi:namedview
     id="namedview12"
     pagecolor="#ffffff"
     bordercolor="#666666"
     borderopacity="1.0"
     inkscape:pageshadow="2"
     inkscape:pageopacity="0.0"
     inkscape:pagecheckerboard="0"
     showgrid="false"
     inkscape:zoom="0.80371094"
     inkscape:cx="478.40583"
     inkscape:cy="455.3876"
     inkscape:window-width="1920"
     inkscape:window-height="1009"
     inkscape:window-x="1912"
     inkscape:window-y="-8"
     inkscape:window-maximized="1"
     inkscape:current-layer="layer2" />
  <g
     inkscape:groupmode="layer"
     id="layer1"
     inkscape:label="Layer 1">
    <rect
       style="fill:#edece8;fill-opacity:1;stroke:none;stroke-width:3.77953;paint-order:markers fill stroke"
       id="rect859"
       width="1024"
       height="1024"
       x="0"
       y="0" />
  </g>
  <g
     inkscape:groupmode="layer"
     id="layer2"
     inkscape:label="Layer 2">
    <g
       id="g1175"
       transform="matrix(1.3039666,0,0,1.3039666,-133.67595,-155.6309)">
      <path
         fill="#222"
         d="m 379.46437,453.80835 c 9.84,-0.394 19.693,0.366 29.356,2.264 29.985,5.879 60.066,23.347 82.383,44.102 3.413,3.174 10.646,10.039 13.097,13.656 -2.203,2.507 -4.458,4.967 -6.764,7.378 -28.608,29.567 -65.043,50.822 -107.196,51.501 -1.811,0.07 -3.624,0.089 -5.437,0.056 -52.225,-0.636 -84.833,-23.627 -119.058,-58.673 0.371,-0.462 0.749,-0.919 1.133,-1.371 27.779,-32.744 69.486,-55.384 112.486,-58.913 z m -90.252,59.33 c 1.703,5.837 28.726,24.175 35.055,27.67 29.225,16.211 63.683,20.182 95.83,11.044 23.857,-6.936 43.982,-20.501 61.17,-38.236 -16.691,-16.445 -47.904,-37.307 -70.997,-40.08 9.782,6.577 16.211,15.519 18.423,27.221 2.194,11.862 -0.344,24.112 -7.069,34.126 -6.326,9.179 -16.024,15.484 -26.979,17.542 -12.071,2.19 -25.269,0.056 -35.443,-6.996 -9.456,-6.642 -15.919,-16.739 -17.99,-28.108 -2.98,-16.748 2.846,-34.012 17.278,-43.664 -28.487,6.444 -48.207,20.41 -69.278,39.481 z"
         id="path2"
         style="fill:#c3af9a;fill-opacity:1" />
      <path
         fill="#222"
         d="m 581.21553,385.1075 c 0.237,0.323 0.473,0.646 0.709,0.969 -2.103,30.012 -7.448,73.371 -10.506,101.942 10.128,5.057 22.835,8.955 33.623,14.475 -4.683,13.223 -13.125,31.297 -18.745,44.705 l -38.275,90.184 c -0.163,0.362 -0.774,1.149 -1.033,1.51 l -0.762,-0.234 c -1.586,-7.076 19.967,-107.976 23.173,-123.856 -8.248,-4.251 -21.215,-9.184 -30.251,-13.318 3.876,-9.703 7.926,-22.5 11.417,-32.532 6.034,-17.29 12.164,-34.547 18.39,-51.769 2.425,-6.773 9.044,-26.41 12.26,-32.076 z"
         id="path6"
         style="fill:#4d4639;fill-opacity:1" />
      <g
         id="g1168"
         transform="translate(41.059538,41.680041)">
        <path
           fill="#222"
           d="m 625.005,374.623 c 18.216,-0.684 39.971,-0.185 58.416,-0.107 -0.465,3.789 -0.751,7.879 -1.092,11.712 -3.259,36.607 -7.474,73.272 -10.43,109.897 -0.376,3.933 -0.72,7.869 -1.032,11.807 l -33.712,0.155 c -0.522,-13.863 -2.931,-33.597 -4.233,-47.773 z"
           id="path4"
           style="fill:#c3af9a;fill-opacity:1" />
        <path
           fill="#222"
           d="m 650.684,516.668 c 13.604,-2.179 26.408,7.056 28.634,20.653 2.226,13.597 -6.965,26.433 -20.555,28.705 -13.655,2.284 -26.567,-6.962 -28.803,-20.625 -2.237,-13.663 7.053,-26.543 20.724,-28.733 z"
           id="path8"
           style="fill:#c3af9a;fill-opacity:1" />
      </g>
    </g>
  </g>
</svg>
