<?xml version="1.0" encoding="UTF-8" standalone="no"?>
<svg
   width="150mm"
   height="150mm"
   viewBox="0 0 566.92916 566.92916"
   version="1.1"
   id="svg26"
   sodipodi:docname="two.svg"
   inkscape:version="1.1.2 (b8e25be833, 2022-02-05)"
   xmlns:inkscape="http://www.inkscape.org/namespaces/inkscape"
   xmlns:sodipodi="http://sodipodi.sourceforge.net/DTD/sodipodi-0.dtd"
   xmlns="http://www.w3.org/2000/svg"
   xmlns:svg="http://www.w3.org/2000/svg">
  <defs
     id="defs30" />
  <sodipodi:namedview
     id="namedview28"
     pagecolor="#ffffff"
     bordercolor="#666666"
     borderopacity="1.0"
     inkscape:pageshadow="2"
     inkscape:pageopacity="0.0"
     inkscape:pagecheckerboard="0"
     showgrid="false"
     units="mm"
     inkscape:zoom="0.80371094"
     inkscape:cx="512"
     inkscape:cy="313.54557"
     inkscape:window-width="1920"
     inkscape:window-height="1009"
     inkscape:window-x="-8"
     inkscape:window-y="-8"
     inkscape:window-maximized="1"
     inkscape:current-layer="layer2"
     inkscape:document-units="mm" />
  <g
     inkscape:groupmode="layer"
     id="layer1"
     inkscape:label="Layer 1">
    <rect
       style="fill:#ece9e7;fill-opacity:1;stroke-width:0;paint-order:markers fill stroke"
       id="rect888"
       width="566.92914"
       height="566.92914"
       x="-2.1626629e-06"
       y="-2.1626629e-06" />
  </g>
  <g
     inkscape:groupmode="layer"
     id="layer2"
     inkscape:label="Layer 2">
    <g
       id="g1058"
       transform="matrix(0.98623178,0,0,0.98623178,30.263609,-131.25063)">
      <path
         fill="#327a81"
         d="m 275.08596,272.04145 c 1.2822,-3.21226 3.50413,-7.47017 6.88704,-8.69117 7.80852,-2.59265 8.28456,10.77364 10.25817,15.63999 4.47504,11.03608 13.53575,19.77727 23.67035,25.73399 4.89107,2.8745 10.93664,-3.69831 14.72263,-6.34214 8.30222,-5.79843 21.45548,-11.33678 31.64069,-11.26205 5.36476,-0.97503 16.73213,-0.27891 22.01038,1.2363 1.55876,0.0871 3.82541,0.79792 5.31062,1.18982 10.31408,2.71915 17.81485,9.60677 26.48895,15.17101 1.55818,0.99975 4.17495,0.90795 5.92613,0.0435 8.181,-4.03842 15.28987,-11.39444 20.70288,-18.64748 1.29279,-1.7753 3.26992,-6.4051 4.07843,-8.31398 0.38484,-1.24631 1.3181,-3.8313 1.47285,-4.98345 1.27279,-9.45967 8.93067,-14.78676 14.13302,-3.38468 10.5977,23.22903 4.66804,55.16571 -16.65975,70.59092 3.35996,17.55476 3.23462,36.79891 2.25723,54.58669 -0.12945,2.3555 -0.44956,9.08954 -0.83734,11.15436 -0.11239,1.71469 -0.72142,7.37661 -0.47781,8.63703 0.87441,4.52389 2.20781,9.49851 3.3223,14.01474 l 6.5275,26.54662 19.19002,78.19231 4.16905,16.86394 c 1.09449,4.39854 2.27312,8.49463 2.74093,13.08736 0.4884,4.8028 -3.61946,7.91091 -8.22043,7.26716 -10.47001,-1.46402 -16.51734,-12.63721 -27.79174,-13.07147 -20.7682,-2.51144 -22.61941,14.5661 -41.2922,14.61141 -12.65663,0.0306 -17.86545,-9.901 -28.69146,-13.75936 -4.09079,-1.45814 -7.5908,-0.57019 -11.18672,-1.03859 -2.59735,0.93738 -5.35063,1.26749 -7.91091,2.76094 -3.54061,2.06481 -6.74757,4.74278 -10.0887,7.12535 -8.06626,5.75253 -17.06989,6.46806 -26.0647,2.33431 -4.7057,-2.1619 -8.5423,-5.90552 -12.91142,-8.63115 -1.9842,-1.23748 -5.02993,-2.3096 -7.25422,-3.08163 -14.16184,-1.92535 -17.87368,2.40787 -28.62791,10.37469 -3.68124,2.72739 -10.25758,3.68183 -12.39948,-1.12686 -1.97773,-4.43856 0.76908,-14.83678 2.13896,-19.29946 0.10003,-1.88887 1.68409,-8.23219 2.20486,-10.48178 l 4.49152,-19.55131 15.37166,-67.55696 4.94403,-21.37663 c 0.83616,-3.59063 1.91417,-8.02271 2.61676,-11.54626 0.47546,-2.38551 -0.16299,-9.19075 -0.34129,-11.95522 -0.356,-5.36828 -0.65846,-10.7401 -0.90913,-16.11427 -0.79733,-18.37503 -0.4937,-31.25232 2.076,-49.46789 -7.53137,-7.42133 -11.42504,-11.47447 -16.0925,-21.53728 -6.16797,-13.2992 -6.93999,-32.2815 -1.59525,-45.94141 z m 110.95986,150.49616 c 4.80751,3.61122 9.97926,11.43328 14.83384,13.75347 1.63526,-2.24899 18.22616,-34.75881 18.50272,-36.76007 l -0.26832,-0.57314 c -3.38585,-0.92913 -18.19203,10.42294 -22.14513,9.99574 -3.30112,-0.35659 -6.8535,-12.3583 -9.93219,-14.80089 -3.78598,-0.80145 -12.88847,14.49725 -17.67538,12.90024 -4.58155,-1.52875 -11.16142,-12.12233 -15.7365,-13.5687 -2.94982,3.9072 -7.316,14.59023 -10.88838,15.16571 -3.92545,0.63198 -19.5266,-10.60652 -22.28754,-9.74976 -0.34835,0.55607 -0.43132,0.66316 -0.28951,1.34398 0.11593,0.5596 16.3267,32.47804 17.66774,34.7082 3.67889,-2.23193 12.81963,-14.27129 16.22843,-12.91554 4.71041,1.87358 10.67125,9.69622 15.06862,13.20035 2.59617,-2.51497 5.13526,-5.10761 7.7332,-7.60669 2.44965,-2.35668 5.49833,-6.64401 9.1884,-5.0929 z m 20.91589,-48.06389 c 5.34416,-0.94267 9.77037,-4.68335 11.5898,-9.79567 1.82003,-5.11231 0.7532,-10.80836 -2.79388,-14.91563 -3.54649,-4.10668 -9.02658,-5.99202 -14.34956,-4.93578 -8.10921,1.60819 -13.41159,9.44495 -11.8899,17.57064 1.52228,8.12569 9.30197,13.51163 17.44354,12.07644 z m -68.85974,-0.13652 c 8.11568,-1.73588 13.29037,-9.71858 11.56155,-17.83603 -1.72882,-8.11686 -9.70681,-13.29861 -17.82543,-11.57685 -8.12863,1.72352 -13.31803,9.71387 -11.58745,17.84132 1.73117,8.12687 9.72564,13.30979 17.85133,11.57156 z"
         id="path2"
         style="fill:#4d4639;fill-opacity:1;stroke-width:0.588434" />
      <path
         fill="#1c585f"
         d="m 275.08596,272.04145 c 0.66023,1.79649 -1.5111,7.17242 -1.88181,9.47144 -2.71974,16.84686 0.54371,34.25746 11.11199,47.94561 2.90334,3.76068 5.80667,6.29801 8.94538,9.6415 0.008,3.67124 -0.77497,8.25043 -1.19335,12.03406 -0.67787,6.12325 -1.03564,12.27827 -1.07153,18.43859 0.0447,10.45647 0.4019,20.90883 1.07153,31.34353 0.14711,2.68797 1.04389,13.21094 0.75555,15.10629 -0.62197,4.09373 -2.59381,11.53625 -3.55473,15.87595 l -9.15191,40.19535 -11.4833,50.5818 -3.49353,15.03979 c -0.62374,2.74446 -1.40636,6.82702 -2.21546,9.4279 l -0.60549,0.4272 c 0.10003,-1.88887 1.68409,-8.23219 2.20486,-10.48178 l 4.49152,-19.55131 15.37166,-67.55696 4.94403,-21.37663 c 0.83616,-3.59063 1.91417,-8.02271 2.61676,-11.54626 0.47546,-2.38551 -0.16299,-9.19075 -0.34129,-11.95522 -0.356,-5.36828 -0.65846,-10.7401 -0.90913,-16.11427 -0.79733,-18.37503 -0.4937,-31.25232 2.076,-49.46789 -7.53137,-7.42133 -11.42504,-11.47447 -16.0925,-21.53728 -6.16797,-13.2992 -6.93999,-32.2815 -1.59525,-45.94141 z"
         id="path4"
         style="stroke-width:0.588434" />
      <path
         fill="#1c585f"
         d="m 446.78223,277.79928 c 0.38484,-1.24631 1.3181,-3.8313 1.47285,-4.98345 1.27279,-9.45967 8.93067,-14.78676 14.13302,-3.38468 10.5977,23.22903 4.66804,55.16571 -16.65975,70.59092 3.35996,17.55476 3.23462,36.79891 2.25723,54.58669 -0.12945,2.3555 -0.44956,9.08954 -0.83734,11.15436 -0.52547,-2.34374 -0.35365,-4.15023 -0.18006,-6.49279 1.11214,-15.00271 1.31044,-30.15548 -0.0889,-45.14702 -0.44132,-4.7316 -1.15392,-9.46908 -1.66115,-14.22246 2.08895,-2.13895 4.65687,-3.89484 6.87409,-6.2933 7.63611,-8.26044 12.60721,-19.60368 14.03063,-30.72274 1.57465,-12.30239 0.21948,-27.63875 -7.46723,-37.82984 -2.27724,-1.221 -3.08281,-1.13038 -5.58895,-1.08919 -4.46622,4.53506 -3.58533,12.0935 -6.28448,13.8335 z"
         id="path6"
         style="stroke-width:0.588434" />
      <path
         fill="#1c585f"
         d="m 301.20773,557.62209 0.35424,-0.38366 c 7.94445,1.27043 13.87175,9.10367 21.23365,11.9817 8.90772,3.60828 18.24911,2.0148 25.77695,-3.88249 3.12752,-2.45024 12.88788,-9.89982 16.86511,-8.22337 -2.59735,0.93738 -5.35063,1.26749 -7.91091,2.76094 -3.54061,2.06481 -6.74757,4.74278 -10.0887,7.12535 -8.06626,5.75253 -17.06989,6.46806 -26.0647,2.33431 -4.7057,-2.1619 -8.5423,-5.90552 -12.91142,-8.63115 -1.9842,-1.23748 -5.02993,-2.3096 -7.25422,-3.08163 z"
         id="path8"
         style="stroke-width:0.588434" />
      <path
         fill="#1c585f"
         d="m 362.26484,287.12007 c 5.36476,-0.97503 16.73213,-0.27891 22.01038,1.2363 -1.22453,0.50429 -8.06566,-0.4884 -9.90393,-0.60726 -3.97958,-0.25832 -8.161,-0.27715 -12.10645,-0.62904 z"
         id="path10"
         style="stroke-width:0.588434" />
      <path
         fill="#327a81"
         d="m 31.073488,414.18655 c -0.812627,-17.23465 13.335096,-34.13801 28.817976,-40.203 4.284389,-1.70057 8.768258,-2.8492 13.342743,-3.41762 4.913426,-0.65964 10.615353,-0.53254 15.63352,-0.51783 11.804583,0.0341 23.981043,-0.67787 35.059493,4.10963 9.62914,3.12458 19.76315,12.14881 24.41767,21.17245 2.18015,4.23437 3.61887,8.81062 4.25497,13.53045 0.57843,4.61392 0.45015,10.37939 0.39542,15.06215 -0.17711,15.16572 0.17242,30.34026 0.004,45.49832 -0.0906,8.18395 -4.15787,15.46935 -11.58332,19.1912 -2.53204,1.25513 -5.25825,2.07128 -8.06332,2.41316 -1.61466,0.19007 -2.58852,0.32364 -4.23908,0.27127 0.24715,4.74102 0.0506,11.19908 0.0412,16.04778 l 0.004,28.80797 0.0235,18.31031 c 0.009,6.66755 0.86971,13.16445 -4.05078,18.47507 -5.63661,6.08382 -17.24112,7.03473 -23.30199,1.08684 -3.886023,-3.82188 -4.612739,-7.0924 -4.64981,-12.24238 l 0.07944,-41.26748 c 0.0094,-6.1456 0.162408,-12.37006 -0.15005,-18.39268 -0.28186,-5.44537 -7.005898,-6.71933 -9.026581,-2.85391 -1.960662,3.75009 -1.207467,15.03685 -1.199229,19.36184 l 0.06061,31.94138 c 0.0041,4.19083 0.321285,10.27465 -0.246554,14.27365 -2.607352,18.36974 -32.165576,17.573 -31.464162,-2.50379 -0.33835,-6.84054 -0.02413,-16.52852 -0.02236,-23.55914 l 0.01353,-47.36542 c -5.841386,-0.30245 -9.110726,-0.356 -14.165965,-3.50589 -11.073154,-6.7817 -10.16167,-17.16403 -10.122833,-28.47668 l 0.03178,-18.17438 c 0.01,-8.04272 -0.418377,-19.47599 0.106506,-27.07327 z"
         id="path12"
         style="fill:#c3af9a;fill-opacity:1;stroke-width:0.588434" />
      <path
         fill="#1c585f"
         d="m 55.232831,562.34133 c 1.744707,4.89048 1.043882,8.91184 6.53515,12.5566 3.547669,2.35492 8.618207,2.89863 12.711353,2.04304 13.984727,-2.92275 11.919323,-17.23523 11.911673,-28.01711 l -0.05767,-30.50502 c -0.02118,-5.19528 -0.154758,-10.16755 0.100034,-15.54172 0.148874,-5.09584 4.99816,-8.79003 9.322563,-5.06877 2.76211,2.37727 2.158965,6.44512 2.151315,9.70739 -0.04472,17.94077 -0.03236,35.88743 -0.04237,53.82643 -0.0029,4.80163 0.737896,8.77238 4.454441,12.18294 6.39628,6.71051 21.389,4.15258 24.6754,-4.54506 2.24429,-5.93789 1.45285,-17.73129 1.44578,-24.30116 l -0.0412,-35.0336 c -0.004,-5.49892 -0.0694,-11.24204 0.0859,-16.74625 0.0276,-0.97916 0.0977,-1.00034 0.62844,-1.60231 0.24715,4.74102 0.0506,11.19908 0.0412,16.04778 l 0.004,28.80797 0.0235,18.31031 c 0.009,6.66755 0.86971,13.16445 -4.05078,18.47507 -5.63661,6.08382 -17.24112,7.03473 -23.30199,1.08684 -3.88602,-3.82188 -4.612736,-7.0924 -4.649807,-12.24238 l 0.07944,-41.26748 c 0.0094,-6.1456 0.162408,-12.37006 -0.15005,-18.39268 -0.28186,-5.44537 -7.005898,-6.71933 -9.026581,-2.85391 -1.960662,3.75009 -1.207467,15.03685 -1.199229,19.36184 l 0.06061,31.94138 c 0.0041,4.19083 0.321285,10.27465 -0.246554,14.27365 -2.607352,18.36974 -32.165576,17.573 -31.464162,-2.50379 z"
         id="path14"
         style="fill:#c3af9a;fill-opacity:1;stroke-width:0.588434" />
      <path
         fill="#1c585f"
         d="m 123.92722,374.15773 c 9.62914,3.12458 19.76315,12.14881 24.41767,21.17245 2.18015,4.23437 3.61887,8.81062 4.25497,13.53045 0.57843,4.61392 0.45015,10.37939 0.39542,15.06215 -0.17711,15.16572 0.17242,30.34026 0.004,45.49832 -0.0906,8.18395 -4.15787,15.46935 -11.58332,19.1912 -2.53204,1.25513 -5.25825,2.07128 -8.06332,2.41316 0.9515,-1.06506 3.52002,-1.45931 5.01052,-1.99538 14.32249,-5.15174 13.94001,-15.94892 13.94413,-28.50492 l -0.005,-18.19792 -0.0212,-19.88378 c -0.006,-3.76068 0.14182,-7.7891 -0.1424,-11.52743 -1.16333,-15.30399 -10.93016,-27.46457 -24.2223,-34.41692 -1.54052,-0.80616 -2.71974,-1.08331 -3.98959,-2.34138 z"
         id="path16"
         style="fill:#c3af9a;fill-opacity:1;stroke-width:0.588434" />
      <path
         fill="#1c585f"
         d="m 31.073488,414.18655 c 0.819689,4.4874 0.560778,13.11738 0.562543,17.97549 l 0.03236,28.80856 c 0.02589,5.89317 -0.686114,11.1626 1.626432,16.80097 2.133074,5.2 3.73185,6.11854 7.842063,9.68798 l -0.07885,0.45133 C 29.984885,481.12918 30.896369,470.74685 30.935206,459.4342 l 0.03178,-18.17438 c 0.01,-8.04272 -0.418377,-19.47599 0.106506,-27.07327 z"
         id="path18"
         style="fill:#c3af9a;fill-opacity:1;stroke-width:0.588434" />
      <path
         fill="#327a81"
         d="m 88.509959,273.86736 c 23.169601,-2.09541 43.660641,14.96682 45.795481,38.13348 2.13484,23.16606 -14.89268,43.68594 -38.055806,45.8602 -23.218436,2.17897 -43.798332,-14.89856 -45.938467,-38.12053 -2.139547,-23.22196 14.972708,-43.77303 38.198792,-45.87315 z"
         id="path20"
         style="fill:#c3af9a;fill-opacity:1;stroke-width:0.588434" />
      <path
         fill="#327a81"
         d="m 217.15933,386.31007 c 1.81061,-5.94201 8.03036,-8.44697 12.62838,-3.99076 11.4574,11.10552 22.63236,22.54644 33.98266,33.76612 2.07777,2.06128 2.3914,3.64653 2.59618,6.44983 -0.56667,1.26925 -1.13745,2.38021 -2.04187,3.45116 -3.69066,4.37089 -34.95064,35.69677 -38.01873,36.98603 -1.95361,0.82146 -4.21908,0.88265 -6.13796,-0.053 -1.76707,-0.86088 -3.39527,-2.54262 -4.00194,-4.43267 -0.69671,-2.22428 -0.45427,-4.63686 0.6714,-6.67814 2.75858,-4.99051 19.9085,-18.6869 20.08208,-22.29577 l -0.10768,-0.23184 c -2.66208,-0.49252 -9.67974,-0.326 -12.64427,-0.32659 l -30.84572,0.0106 c -3.94192,0.004 -14.26953,0.64492 -17.31998,-0.88972 -1.8671,-0.93149 -3.26581,-2.5944 -3.86307,-4.5939 -0.58255,-1.97067 -0.36659,-4.09138 0.6008,-5.90376 3.20108,-5.9679 11.41091,-3.95251 16.99633,-4.32087 1.52404,-0.10063 3.30406,0.002 4.86458,0.002 l 30.09724,-0.0212 c 2.87332,0.0182 9.70681,0.30716 12.01818,-0.3766 l 0.29186,-0.57019 c -0.52488,-2.47378 -14.9833,-15.07569 -17.26348,-18.2191 -2.12249,-2.92511 -2.95277,-3.89603 -2.58499,-7.76145 z"
         id="path22"
         style="fill:#ddbea9;fill-opacity:1;stroke-width:0.588434" />
      <path
         fill="#1c585f"
         d="m 217.15933,386.31007 c 1.39576,5.70958 1.3987,6.04322 5.76783,10.14931 3.88425,3.65065 7.79263,7.72379 11.65923,11.44446 1.47638,1.42048 3.53649,3.30288 2.73269,5.44772 -2.53144,1.28397 -13.1109,0.59785 -16.59208,0.59315 l -30.00661,0.0347 c -6.06735,-0.0106 -22.284,-2.15308 -16.9675,11.11964 2.21487,5.53011 14.81383,2.74623 19.78021,3.33819 5.62897,0.6714 40.90795,-1.14627 43.7801,0.3613 -0.44604,0.4784 -0.30128,0.37836 -0.50135,0.48252 -2.66208,-0.49252 -9.67974,-0.326 -12.64427,-0.32659 l -30.84572,0.0106 c -3.94192,0.004 -14.26953,0.64492 -17.31998,-0.88972 -1.8671,-0.93149 -3.26581,-2.5944 -3.86307,-4.5939 -0.58255,-1.97067 -0.36659,-4.09138 0.6008,-5.90376 3.20108,-5.9679 11.41091,-3.95251 16.99633,-4.32087 1.52404,-0.10063 3.30406,0.002 4.86458,0.002 l 30.09724,-0.0212 c 2.87332,0.0182 9.70681,0.30716 12.01818,-0.3766 l 0.29186,-0.57019 c -0.52488,-2.47378 -14.9833,-15.07569 -17.26348,-18.2191 -2.12249,-2.92511 -2.95277,-3.89603 -2.58499,-7.76145 z"
         id="path24"
         style="fill:#ddbea9;fill-opacity:1;stroke-width:0.588434" />
    </g>
  </g>
</svg>
